HIERARCHY
ROOT Hips
{
	OFFSET 4.671251 1.175639 2.625809
	CHANNELS 6 Xposition Yposition Zposition Zrotation Yrotation Xrotation 
	JOINT Spine
	{
		OFFSET 0.000017 8.340399 -2.713999
		CHANNELS 3 Zrotation Yrotation Xrotation
		JOINT Spine1
		{
			OFFSET -0.000003 11.909964 -2.100054
			CHANNELS 3 Zrotation Yrotation Xrotation
			JOINT Spine2
			{
				OFFSET -0.000044 12.047662 -1.054068
				CHANNELS 3 Zrotation Yrotation Xrotation
				JOINT Spine3
				{
					OFFSET -0.000016 12.093765 0.000008
					CHANNELS 3 Zrotation Yrotation Xrotation
					JOINT Neck
					{
						OFFSET -0.000051 15.549109 1.554888
						CHANNELS 3 Zrotation Yrotation Xrotation
						JOINT Neck1
						{
							OFFSET 0.000068 4.687341 0.410080
							CHANNELS 3 Zrotation Yrotation Xrotation
							JOINT Head
							{
								OFFSET 0.000076 4.633783 0.817078
								CHANNELS 3 Zrotation Yrotation Xrotation
								JOINT HeadEnd
								{
									OFFSET 0.000009 9.727766 -0.000018
									CHANNELS 3 Zrotation Yrotation Xrotation
									End Site
									{
										OFFSET 0.000000 0.000000 0.000000
									}
								}
							}
						}
					}
					JOINT RightShoulder
					{
						OFFSET 0.000043 11.106481 6.072611
						CHANNELS 3 Zrotation Yrotation Xrotation
						JOINT RightArm
						{
							OFFSET -19.427915 0.000059 -0.000012
							CHANNELS 3 Zrotation Yrotation Xrotation
							JOINT RightForeArm
							{
								OFFSET -29.350696 0.000016 0.000020
								CHANNELS 3 Zrotation Yrotation Xrotation
								JOINT RightHand
								{
									OFFSET -27.018077 -0.000014 0.000059
									CHANNELS 3 Zrotation Yrotation Xrotation
									JOINT RightHandMiddle1
									{
										OFFSET -9.244039 -0.000032 0.000028
										CHANNELS 3 Zrotation Yrotation Xrotation
										JOINT RightHandMiddle2
										{
											OFFSET -4.870021 0.000001 -0.000023
											CHANNELS 3 Zrotation Yrotation Xrotation
											JOINT RightHandMiddle3
											{
												OFFSET -3.169076 -0.000001 0.000018
												CHANNELS 3 Zrotation Yrotation Xrotation
												JOINT RightHandMiddle4
												{
													OFFSET -1.888359 -0.000001 0.000003
													CHANNELS 3 Zrotation Yrotation Xrotation
													End Site
													{
														OFFSET 0.000000 0.000000 0.000000
													}
												}
											}
										}
									}
									JOINT RightHandRing
									{
										OFFSET -0.250013 -0.250015 -0.956460
										CHANNELS 3 Zrotation Yrotation Xrotation
										JOINT RightHandRing1
										{
											OFFSET -8.140222 -0.000011 -0.734617
											CHANNELS 3 Zrotation Yrotation Xrotation
											JOINT RightHandRing2
											{
												OFFSET -4.501559 -0.000016 -0.406240
												CHANNELS 3 Zrotation Yrotation Xrotation
												JOINT RightHandRing3
												{
													OFFSET -3.068826 0.000011 -0.276940
													CHANNELS 3 Zrotation Yrotation Xrotation
													JOINT RightHandRing4
													{
														OFFSET -1.869943 -0.000025 -0.168781
														CHANNELS 3 Zrotation Yrotation Xrotation
														End Site
														{
															OFFSET 0.000000 0.000000 0.000000
														}
													}
												}
											}
										}
										JOINT RightHandPinky
										{
											OFFSET -0.163045 -0.249985 -0.975114
											CHANNELS 3 Zrotation Yrotation Xrotation
											JOINT RightHandPinky1
											{
												OFFSET -6.681447 0.000022 -1.494112
												CHANNELS 3 Zrotation Yrotation Xrotation
												JOINT RightHandPinky2
												{
													OFFSET -3.580946 0.000002 -0.800810
													CHANNELS 3 Zrotation Yrotation Xrotation
													JOINT RightHandPinky3
													{
														OFFSET -2.276526 -0.000028 -0.509081
														CHANNELS 3 Zrotation Yrotation Xrotation
														JOINT RightHandPinky4
														{
															OFFSET -1.690335 -0.000024 -0.377987
															CHANNELS 3 Zrotation Yrotation Xrotation
															End Site
															{
																OFFSET 0.000000 0.000000 0.000000
															}
														}
													}
												}
											}
										}
									}
									JOINT RightHandIndex
									{
										OFFSET -0.249991 -0.249999 0.956495
										CHANNELS 3 Zrotation Yrotation Xrotation
										JOINT RightHandIndex1
										{
											OFFSET -8.934087 0.000041 0.806263
											CHANNELS 3 Zrotation Yrotation Xrotation
											JOINT RightHandIndex2
											{
												OFFSET -4.694648 -0.000015 0.423694
												CHANNELS 3 Zrotation Yrotation Xrotation
												JOINT RightHandIndex3
												{
													OFFSET -2.811720 0.000009 0.253755
													CHANNELS 3 Zrotation Yrotation Xrotation
													JOINT RightHandIndex4
													{
														OFFSET -1.709920 -0.000015 0.154285
														CHANNELS 3 Zrotation Yrotation Xrotation
														End Site
														{
															OFFSET 0.000000 0.000000 0.000000
														}
													}
												}
											}
										}
										JOINT RightHandThumb1
										{
											OFFSET -0.162997 -0.750042 0.975083
											CHANNELS 3 Zrotation Yrotation Xrotation
											JOINT RightHandThumb2
											{
												OFFSET -5.411668 0.835510 2.244681
												CHANNELS 3 Zrotation Yrotation Xrotation
												JOINT RightHandThumb3
												{
													OFFSET -3.567133 0.550744 1.479605
													CHANNELS 3 Zrotation Yrotation Xrotation
													JOINT RightHandThumb4
													{
														OFFSET -2.150530 0.332047 0.892036
														CHANNELS 3 Zrotation Yrotation Xrotation
														End Site
														{
															OFFSET 0.000000 0.000000 0.000000
														}
													}
												}
											}
										}
									}
								}
							}
						}
					}
					JOINT LeftShoulder
					{
						OFFSET 0.000018 11.106473 6.072664
						CHANNELS 3 Zrotation Yrotation Xrotation
						JOINT LeftArm
						{
							OFFSET 19.427859 -0.000025 -0.000069
							CHANNELS 3 Zrotation Yrotation Xrotation
							JOINT LeftForeArm
							{
								OFFSET 29.350743 0.000033 0.000018
								CHANNELS 3 Zrotation Yrotation Xrotation
								JOINT LeftHand
								{
									OFFSET 27.018064 -0.000036 0.000014
									CHANNELS 3 Zrotation Yrotation Xrotation
									JOINT LeftHandMiddle1
									{
										OFFSET 9.402644 0.000026 -0.000018
										CHANNELS 3 Zrotation Yrotation Xrotation
										JOINT LeftHandMiddle2
										{
											OFFSET 4.950131 -0.000004 -0.000004
											CHANNELS 3 Zrotation Yrotation Xrotation
											JOINT LeftHandMiddle3
											{
												OFFSET 3.211962 -0.000014 0.000006
												CHANNELS 3 Zrotation Yrotation Xrotation
												JOINT LeftHandMiddle4
												{
													OFFSET 1.927618 -0.000007 -0.000010
													CHANNELS 3 Zrotation Yrotation Xrotation
													End Site
													{
														OFFSET 0.000000 0.000000 0.000000
													}
												}
											}
										}
									}
									JOINT LeftHandRing
									{
										OFFSET 0.249975 -0.250027 -0.906135
										CHANNELS 3 Zrotation Yrotation Xrotation
										JOINT LeftHandRing1
										{
											OFFSET 8.286077 0.000003 -0.747788
											CHANNELS 3 Zrotation Yrotation Xrotation
											JOINT LeftHandRing2
											{
												OFFSET 4.585509 -0.000003 -0.413812
												CHANNELS 3 Zrotation Yrotation Xrotation
												JOINT LeftHandRing3
												{
													OFFSET 3.124448 -0.000002 -0.281951
													CHANNELS 3 Zrotation Yrotation Xrotation
													JOINT LeftHandRing4
													{
														OFFSET 1.908788 -0.000009 -0.172251
														CHANNELS 3 Zrotation Yrotation Xrotation
														End Site
														{
															OFFSET 0.000000 0.000000 0.000000
														}
													}
												}
											}
										}
										JOINT LeftHandPinky
										{
											OFFSET 0.167509 -0.250005 -0.924940
											CHANNELS 3 Zrotation Yrotation Xrotation
											JOINT LeftHandPinky1
											{
												OFFSET 6.823517 0.000016 -1.525873
												CHANNELS 3 Zrotation Yrotation Xrotation
												JOINT LeftHandPinky2
												{
													OFFSET 3.642809 -0.000027 -0.814605
													CHANNELS 3 Zrotation Yrotation Xrotation
													JOINT LeftHandPinky3
													{
														OFFSET 2.333112 0.000013 -0.521766
														CHANNELS 3 Zrotation Yrotation Xrotation
														JOINT LeftHandPinky4
														{
															OFFSET 1.725445 -0.000005 -0.385868
															CHANNELS 3 Zrotation Yrotation Xrotation
															End Site
															{
																OFFSET 0.000000 0.000000 0.000000
															}
														}
													}
												}
											}
										}
									}
									JOINT LeftHandIndex
									{
										OFFSET 0.249987 -0.249985 0.906152
										CHANNELS 3 Zrotation Yrotation Xrotation
										JOINT LeftHandIndex1
										{
											OFFSET 9.087952 -0.000021 0.820177
											CHANNELS 3 Zrotation Yrotation Xrotation
											JOINT LeftHandIndex2
											{
												OFFSET 4.776550 -0.000025 0.431054
												CHANNELS 3 Zrotation Yrotation Xrotation
												JOINT LeftHandIndex3
												{
													OFFSET 2.865128 -0.000006 0.258592
													CHANNELS 3 Zrotation Yrotation Xrotation
													JOINT LeftHandIndex4
													{
														OFFSET 1.745462 -0.000002 0.157485
														CHANNELS 3 Zrotation Yrotation Xrotation
														End Site
														{
															OFFSET 0.000000 0.000000 0.000000
														}
													}
												}
											}
										}
										JOINT LeftHandThumb1
										{
											OFFSET 0.167556 -0.749976 0.924969
											CHANNELS 3 Zrotation Yrotation Xrotation
											JOINT LeftHandThumb2
											{
												OFFSET 5.551493 0.857111 2.302667
												CHANNELS 3 Zrotation Yrotation Xrotation
												JOINT LeftHandThumb3
												{
													OFFSET 3.625622 0.559749 1.503894
													CHANNELS 3 Zrotation Yrotation Xrotation
													JOINT LeftHandThumb4
													{
														OFFSET 2.195257 0.338935 0.910574
														CHANNELS 3 Zrotation Yrotation Xrotation
														End Site
														{
															OFFSET 0.000000 0.000000 0.000000
														}
													}
												}
											}
										}
									}
								}
							}
						}
					}
				}
			}
		}
	}
	JOINT RightUpLeg
	{
		OFFSET -8.786547 0.000017 0.000019
		CHANNELS 3 Zrotation Yrotation Xrotation
		JOINT RightLeg
		{
			OFFSET -0.000079 -42.170418 -0.000091
			CHANNELS 3 Zrotation Yrotation Xrotation
			JOINT RightFoot
			{
				OFFSET 0.000074 -45.949144 0.000019
				CHANNELS 3 Zrotation Yrotation Xrotation
				JOINT RightForeFoot
				{
					OFFSET -0.000016 -4.685850 -0.000017
					CHANNELS 3 Zrotation Yrotation Xrotation
					JOINT RightToeBase
					{
						OFFSET -0.000041 0.000013 18.351135
						CHANNELS 3 Zrotation Yrotation Xrotation
						JOINT RightToeBaseEnd
						{
							OFFSET 0.000036 -0.000003 6.416906
							CHANNELS 3 Zrotation Yrotation Xrotation
							End Site
							{
								OFFSET 0.000000 0.000000 0.000000
							}
						}
					}
				}
			}
		}
	}
	JOINT LeftUpLeg
	{
		OFFSET 8.786556 -0.000023 -0.000013
		CHANNELS 3 Zrotation Yrotation Xrotation
		JOINT LeftLeg
		{
			OFFSET 0.000038 -42.170440 0.000059
			CHANNELS 3 Zrotation Yrotation Xrotation
			JOINT LeftFoot
			{
				OFFSET 0.000028 -45.949184 0.000034
				CHANNELS 3 Zrotation Yrotation Xrotation
				JOINT LeftForeFoot
				{
					OFFSET 0.000029 -4.685858 0.000022
					CHANNELS 3 Zrotation Yrotation Xrotation
					JOINT LeftToeBase
					{
						OFFSET 0.000027 -0.000048 18.351062
						CHANNELS 3 Zrotation Yrotation Xrotation
						JOINT LeftToeBaseEnd
						{
							OFFSET -0.000046 -0.000021 7.522056
							CHANNELS 3 Zrotation Yrotation Xrotation
							End Site
							{
								OFFSET 0.000000 0.000000 0.000000
							}
						}
					}
				}
			}
		}
	}
}
MOTION
Frames: 4
Frame Time: 0.066667
4.671251 1.175639 2.625809 2.408145 23.321285 -0.368434 -0.310964 -0.324369 2.441763 -0.267871 -0.013779 -2.123463 -0.717579 0.183909 -0.179299 0.642268 0.533291 6.562832 8.349847 -3.554538 -0.805460 -11.944249 1.807113 6.422969 -4.475142 0.832420 3.205256 0.001575 0.000567 0.000480 13.282497 -8.491331 -1.975250 62.262730 -2.306416 5.293859 179.994934 58.814945 134.154999 13.768165 -20.055553 -0.067212 56.035904 -5.587986 -0.000506 52.657696 -0.000587 0.001005 27.975241 -0.000988 -0.000061 0.000845 -0.000147 0.001558 -2.291186 -1.461034 -4.505489 60.004799 -1.895434 -4.464108 61.156124 2.691170 -4.532253 23.515568 0.430756 -2.062462 0.000970 -0.000292 0.000291 -3.482419 -4.939527 -4.429688 39.911858 7.949834 -8.427457 62.346737 6.945665 -11.425957 41.861149 3.288428 -8.578899 0.000708 0.000422 -0.000057 -0.402914 7.999357 -2.704995 40.755142 -16.570364 3.531006 42.889164 -1.406562 3.526861 30.593737 -0.716813 2.632231 0.000364 0.001331 -0.000771 6.276802 2.243759 56.253849 4.556201 -4.545228 1.181271 12.929728 -8.735829 3.187784 0.001380 -0.000773 -0.001443 -15.904242 3.784487 -1.105425 -56.987705 4.176879 11.521761 179.998764 -51.317051 159.021912 -1.037550 23.538525 -0.079691 -34.631062 0.620204 0.003255 -33.215675 0.001635 -0.000657 -22.146925 0.001115 -0.000120 0.000449 -0.000532 0.000960 0.297751 -0.280513 -12.507367 -23.223457 4.515842 -2.031994 -38.369274 -1.117184 -3.212764 -12.348414 -0.122084 -1.105224 0.000217 0.000925 -0.000268 1.015398 0.044739 -7.923710 -12.333456 10.752460 -2.678887 -32.517094 -2.001600 -6.900585 -27.691837 -1.462422 -5.963261 -0.000065 -0.001218 0.001517 1.789923 -6.968825 -6.007397 -33.000210 7.851859 2.884125 -23.598003 0.410750 2.073050 -15.558289 0.186557 1.387994 -0.000612 0.002654 -0.001283 -7.184408 6.877217 51.840843 -1.921047 8.035482 -0.265433 0.000000 0.000000 0.000000 -0.000682 0.000878 -0.000816 -4.366013 -8.484675 11.364961 -0.000266 0.001633 0.848279 -0.000000 -0.000000 -0.000000 -0.000000 0.000000 -0.000000 -0.000000 0.000000 0.000000 0.000000 0.000000 0.000000 0.838124 -10.162434 7.773258 -0.001701 -0.001252 -1.485410 -0.000000 0.000000 -0.000000 -0.000000 0.000000 -0.000000 0.000000 0.000000 0.000000 0.000000 0.000000 -0.000000 
4.515050 1.180478 2.697571 2.399255 23.331888 -0.412278 -0.389866 -0.330551 2.327186 -0.287438 -0.010102 -2.132456 -0.741092 0.151526 -0.226262 0.645187 0.531093 6.518791 8.431791 -3.738679 -0.349654 -12.041181 1.656446 6.355587 -4.474941 0.823088 3.102018 0.001646 0.000064 0.000571 13.199086 -8.497943 -1.964385 61.912472 -1.411154 2.479602 179.995331 58.945328 133.378265 10.923328 -19.448195 -0.035538 56.381706 -5.619602 -0.000646 53.017906 -0.000536 0.000733 27.977264 -0.000856 0.000141 0.000606 0.000168 0.001395 -2.334718 -1.472752 -4.326305 60.345558 -1.771265 -4.479391 61.440819 2.714265 -4.545471 23.507448 0.430878 -2.061517 0.000856 -0.000419 -0.000016 -3.492363 -4.971345 -4.420882 40.075802 8.075553 -8.461272 62.626534 7.002921 -11.454431 42.067375 3.322067 -8.613420 0.000426 0.000347 0.000254 -0.369814 8.002048 -2.672644 41.264015 -16.689447 3.566899 43.427811 -1.441373 3.562891 30.817453 -0.727624 2.649267 0.000050 0.001085 -0.000786 6.223365 2.117806 56.409164 4.641473 -4.641129 1.199366 13.088132 -8.845763 3.215099 0.001320 -0.000879 -0.001379 -15.847910 3.744458 -1.090381 -56.794384 3.419281 9.898251 179.998749 -51.167469 158.825119 -0.796998 23.544590 -0.083817 -34.606434 0.674156 0.003071 -33.108883 0.001961 -0.001189 -22.006565 0.001212 -0.000231 0.000522 -0.000621 0.001112 0.315638 -0.287611 -12.446178 -23.288937 4.511950 -2.036965 -38.240379 -1.109956 -3.203066 -12.251934 -0.120710 -1.096469 0.000161 0.001022 -0.000156 1.012300 0.033148 -7.930267 -12.276964 10.765647 -2.666804 -32.436211 -1.991730 -6.884881 -27.601456 -1.455780 -5.946409 0.000026 -0.001008 0.001371 1.790089 -6.954871 -5.980054 -33.009506 7.862738 2.885180 -23.587254 0.410658 2.071487 -15.524473 0.186604 1.385066 -0.000616 0.002187 -0.001231 -7.101693 6.799398 51.770535 -1.888407 8.059314 -0.279435 0.000000 0.000000 0.000000 -0.000463 0.000714 -0.000743 -4.267848 -8.547460 11.431061 -0.000157 0.001461 0.873169 -0.000000 -0.000000 -0.000000 -0.000000 0.000000 -0.000000 -0.000000 0.000000 0.000000 0.000000 0.000000 0.000000 0.914907 -10.209359 7.786227 -0.001348 -0.001464 -1.452365 -0.000000 0.000000 -0.000000 -0.000000 0.000000 -0.000000 0.000000 0.000000 0.000000 0.000000 0.000000 -0.000000 
4.370615 1.185796 2.760440 2.385851 23.327948 -0.454208 -0.451359 -0.336981 2.231435 -0.303407 -0.007337 -2.140063 -0.758212 0.120678 -0.268858 0.655261 0.529241 6.478516 8.508172 -3.898989 0.057707 -12.134064 1.528297 6.301319 -4.477438 0.815573 3.012621 0.001705 -0.000387 0.000661 13.121150 -8.508114 -1.955112 61.603794 -0.621728 -0.008614 179.995682 59.059521 132.749313 8.376480 -18.894583 -0.013251 56.712452 -5.643157 -0.000805 53.370964 -0.000496 0.000483 27.990685 -0.000743 0.000311 0.000404 0.000421 0.001251 -2.374421 -1.482740 -4.166415 60.659706 -1.656283 -4.493395 61.739906 2.738633 -4.559087 23.510456 0.431366 -2.061542 0.000757 -0.000521 -0.000288 -3.503056 -4.999775 -4.410475 40.210644 8.188462 -8.489483 62.923332 7.063639 -11.484567 42.270187 3.355037 -8.647310 0.000183 0.000280 0.000519 -0.340718 8.004066 -2.646375 41.749237 -16.797075 3.600834 43.934139 -1.474212 3.596423 31.031668 -0.737953 2.665577 -0.000206 0.000873 -0.000784 6.173963 2.012934 56.534996 4.694764 -4.729503 1.206699 13.222372 -8.938715 3.238253 0.001251 -0.000968 -0.001316 -15.795003 3.710919 -1.077227 -56.618824 2.771867 8.458934 179.998718 -51.039688 158.640305 -0.605736 23.559074 -0.087691 -34.582584 0.722428 0.002909 -33.016857 0.002239 -0.001654 -21.882238 0.001321 -0.000323 0.000579 -0.000709 0.001251 0.332187 -0.294633 -12.390776 -23.350260 4.508872 -2.041648 -38.116570 -1.103092 -3.193765 -12.168922 -0.119528 -1.088917 0.000121 0.001100 -0.000064 1.009128 0.023763 -7.935039 -12.230418 10.770350 -2.656841 -32.363277 -1.982738 -6.870761 -27.517923 -1.449515 -5.930786 0.000100 -0.000811 0.001249 1.790560 -6.941753 -5.955477 -33.014767 7.874083 2.885906 -23.585255 0.410869 2.070721 -15.500451 0.186770 1.382992 -0.000618 0.001785 -0.001185 -7.020489 6.718504 51.703465 -1.864026 8.083657 -0.290370 0.000000 0.000000 0.000000 -0.000275 0.000567 -0.000685 -4.171613 -8.596520 11.484365 -0.000029 0.001283 0.893858 -0.000000 -0.000000 -0.000000 -0.000000 0.000000 -0.000000 -0.000000 0.000000 0.000000 0.000000 0.000000 0.000000 0.987513 -10.242507 7.794927 -0.001026 -0.001640 -1.420534 -0.000000 0.000000 -0.000000 -0.000000 0.000000 -0.000000 0.000000 -0.000000 0.000000 0.000000 0.000000 -0.000000 
4.237893 1.191593 2.814412 2.367938 23.309458 -0.494214 -0.495440 -0.343659 2.154517 -0.315779 -0.005485 -2.146283 -0.768939 0.091364 -0.307086 0.672489 0.527735 6.442006 8.578977 -4.035461 0.416396 -12.222901 1.422665 6.260176 -4.482637 0.809874 2.937071 0.001752 -0.000784 0.000750 13.048685 -8.521849 -1.947429 61.336750 0.061273 -2.155523 179.995941 59.157555 132.268173 6.134753 -18.411167 0.002015 57.028133 -5.658678 -0.000977 53.716927 -0.000466 0.000257 28.015486 -0.000650 0.000449 0.000239 0.000613 0.001125 -2.410297 -1.490999 -4.025819 60.947327 -1.550476 -4.506153 62.053425 2.764268 -4.573080 23.524595 0.432222 -2.062536 0.000673 -0.000597 -0.000527 -3.514498 -5.024820 -4.398468 40.316368 8.288596 -8.512124 63.237133 7.127784 -11.516311 42.469589 3.387338 -8.680567 -0.000021 0.000220 0.000738 -0.315627 8.005416 -2.626189 42.210651 -16.893406 3.632869 44.408096 -1.505096 3.627504 31.236383 -0.747802 2.681167 -0.000403 0.000696 -0.000765 6.128588 1.929135 56.631283 4.716061 -4.810359 1.203281 13.332420 -9.014712 3.257259 0.001174 -0.001041 -0.001254 -15.745515 3.683874 -1.065962 -56.461021 2.235174 7.207387 179.998642 -50.933647 158.467468 -0.463763 23.582167 -0.091304 -34.559525 0.765016 0.002769 -32.939598 0.002468 -0.002053 -21.773962 0.001441 -0.000398 0.000622 -0.000798 0.001377 0.347398 -0.301580 -12.341163 -23.407417 4.506610 -2.046040 -37.997852 -1.096592 -3.184862 -12.099376 -0.118536 -1.082570 0.000095 0.001159 0.000007 1.005881 0.016584 -7.938022 -12.193832 10.766572 -2.649001 -32.298302 -1.974624 -6.858229 -27.441242 -1.443627 -5.916394 0.000156 -0.000629 0.001152 1.791337 -6.929474 -5.933666 -33.015999 7.885892 2.886303 -23.592031 0.411382 2.070751 -15.486231 0.187057 1.381773 -0.000616 0.001449 -0.001145 -6.940792 6.634534 51.639660 -1.847908 8.108513 -0.298239 0.000000 0.000000 0.000000 -0.000120 0.000437 -0.000642 -4.077303 -8.631877 11.524879 0.000118 0.001099 0.910346 -0.000000 -0.000000 -0.000000 -0.000000 0.000000 -0.000000 -0.000000 0.000000 0.000000 0.000000 0.000000 0.000000 1.055930 -10.261882 7.799381 -0.000736 -0.001781 -1.389918 -0.000000 0.000000 -0.000000 -0.000000 0.000000 -0.000000 0.000000 -0.000000 0.000000 0.000000 0.000000 -0.000000 
